<mxfile host="app.diagrams.net" modified="2022-09-27T18:03:12.870Z" agent="5.0 (Windows NT 10.0; Win64; x64) AppleWebKit/537.36 (KHTML, like Gecko) Chrome/104.0.5112.102 Safari/537.36 OPR/90.0.4480.84" etag="yLo56g4oK7tzB6K_A7l_" version="20.3.7" type="github">
  <diagram id="qlqrQ8tRjtu1ritACzjV" name="PÃ¡gina-1">
    <mxGraphModel dx="2324" dy="761" grid="1" gridSize="10" guides="1" tooltips="1" connect="1" arrows="1" fold="1" page="1" pageScale="1" pageWidth="827" pageHeight="1169" math="0" shadow="0">
      <root>
        <mxCell id="0" />
        <mxCell id="1" parent="0" />
        <mxCell id="EhoqWdMSPW2L86Gc-47y-85" value="PrescricaoAvulsaAccordeonModule&#xa;" style="shape=module;align=left;spacingLeft=20;align=center;verticalAlign=top;" parent="1" vertex="1">
          <mxGeometry x="-233" y="561" width="1030" height="490" as="geometry" />
        </mxCell>
        <mxCell id="EhoqWdMSPW2L86Gc-47y-18" value="PrescricaoAvulsaEstruturaModule" style="shape=module;align=left;spacingLeft=20;align=center;verticalAlign=top;" parent="1" vertex="1">
          <mxGeometry x="-230" y="121" width="1030" height="490" as="geometry" />
        </mxCell>
        <mxCell id="EhoqWdMSPW2L86Gc-47y-19" value="&lt;p style=&quot;margin:0px;margin-top:6px;text-align:center;&quot;&gt;&lt;b&gt;BuscaComponent&lt;/b&gt;&lt;/p&gt;&lt;hr&gt;&lt;p style=&quot;margin:0px;margin-left:8px;&quot;&gt;&lt;br&gt;&lt;/p&gt;" style="align=left;overflow=fill;html=1;dropTarget=0;" parent="1" vertex="1">
          <mxGeometry x="110" y="170" width="220" height="90" as="geometry" />
        </mxCell>
        <mxCell id="EhoqWdMSPW2L86Gc-47y-20" value="" style="shape=component;jettyWidth=8;jettyHeight=4;" parent="EhoqWdMSPW2L86Gc-47y-19" vertex="1">
          <mxGeometry x="1" width="20" height="20" relative="1" as="geometry">
            <mxPoint x="-24" y="4" as="offset" />
          </mxGeometry>
        </mxCell>
        <mxCell id="EhoqWdMSPW2L86Gc-47y-21" value="&lt;p style=&quot;margin:0px;margin-top:6px;text-align:center;&quot;&gt;&lt;b&gt;RodapeComponent&lt;/b&gt;&lt;/p&gt;&lt;hr&gt;&lt;p style=&quot;margin:0px;margin-left:8px;&quot;&gt;&lt;br&gt;&lt;/p&gt;" style="align=left;overflow=fill;html=1;dropTarget=0;" parent="1" vertex="1">
          <mxGeometry x="110" y="450" width="220" height="90" as="geometry" />
        </mxCell>
        <mxCell id="EhoqWdMSPW2L86Gc-47y-22" value="" style="shape=component;jettyWidth=8;jettyHeight=4;" parent="EhoqWdMSPW2L86Gc-47y-21" vertex="1">
          <mxGeometry x="1" width="20" height="20" relative="1" as="geometry">
            <mxPoint x="-24" y="4" as="offset" />
          </mxGeometry>
        </mxCell>
        <mxCell id="EhoqWdMSPW2L86Gc-47y-23" value="&lt;p style=&quot;margin:0px;margin-top:6px;text-align:center;&quot;&gt;&lt;b&gt;CabecalhoComponent&lt;/b&gt;&lt;/p&gt;&lt;hr&gt;&lt;p style=&quot;margin:0px;margin-left:8px;&quot;&gt;&lt;br&gt;&lt;/p&gt;" style="align=left;overflow=fill;html=1;dropTarget=0;" parent="1" vertex="1">
          <mxGeometry x="110" y="310" width="220" height="90" as="geometry" />
        </mxCell>
        <mxCell id="EhoqWdMSPW2L86Gc-47y-24" value="" style="shape=component;jettyWidth=8;jettyHeight=4;" parent="EhoqWdMSPW2L86Gc-47y-23" vertex="1">
          <mxGeometry x="1" width="20" height="20" relative="1" as="geometry">
            <mxPoint x="-24" y="4" as="offset" />
          </mxGeometry>
        </mxCell>
        <mxCell id="EhoqWdMSPW2L86Gc-47y-25" value="&lt;p style=&quot;margin:0px;margin-top:6px;text-align:center;&quot;&gt;&lt;b&gt;CabecalhoTituloComponent&lt;/b&gt;&lt;/p&gt;&lt;hr&gt;&lt;p style=&quot;margin:0px;margin-left:8px;&quot;&gt;&lt;br&gt;&lt;/p&gt;" style="align=left;overflow=fill;html=1;dropTarget=0;" parent="1" vertex="1">
          <mxGeometry x="530" y="250" width="220" height="90" as="geometry" />
        </mxCell>
        <mxCell id="EhoqWdMSPW2L86Gc-47y-26" value="" style="shape=component;jettyWidth=8;jettyHeight=4;" parent="EhoqWdMSPW2L86Gc-47y-25" vertex="1">
          <mxGeometry x="1" width="20" height="20" relative="1" as="geometry">
            <mxPoint x="-24" y="4" as="offset" />
          </mxGeometry>
        </mxCell>
        <mxCell id="EhoqWdMSPW2L86Gc-47y-27" value="&lt;p style=&quot;margin:0px;margin-top:6px;text-align:center;&quot;&gt;&lt;b&gt;CabecalhoCorpoComponent&lt;/b&gt;&lt;/p&gt;&lt;hr&gt;&lt;p style=&quot;margin:0px;margin-left:8px;&quot;&gt;&lt;br&gt;&lt;/p&gt;" style="align=left;overflow=fill;html=1;dropTarget=0;" parent="1" vertex="1">
          <mxGeometry x="530" y="360" width="220" height="90" as="geometry" />
        </mxCell>
        <mxCell id="EhoqWdMSPW2L86Gc-47y-28" value="" style="shape=component;jettyWidth=8;jettyHeight=4;" parent="EhoqWdMSPW2L86Gc-47y-27" vertex="1">
          <mxGeometry x="1" width="20" height="20" relative="1" as="geometry">
            <mxPoint x="-24" y="4" as="offset" />
          </mxGeometry>
        </mxCell>
        <mxCell id="EhoqWdMSPW2L86Gc-47y-69" value="&lt;p style=&quot;margin:0px;margin-top:6px;text-align:center;&quot;&gt;&lt;b&gt;MedicamentoAccordionComponent&lt;/b&gt;&lt;/p&gt;&lt;hr&gt;&lt;p style=&quot;margin:0px;margin-left:8px;&quot;&gt;&lt;br&gt;&lt;/p&gt;" style="align=left;overflow=fill;html=1;dropTarget=0;" parent="1" vertex="1">
          <mxGeometry x="-192.5" y="658" width="295" height="90" as="geometry" />
        </mxCell>
        <mxCell id="EhoqWdMSPW2L86Gc-47y-70" value="" style="shape=component;jettyWidth=8;jettyHeight=4;" parent="EhoqWdMSPW2L86Gc-47y-69" vertex="1">
          <mxGeometry x="1" width="20" height="20" relative="1" as="geometry">
            <mxPoint x="-24" y="4" as="offset" />
          </mxGeometry>
        </mxCell>
        <mxCell id="EhoqWdMSPW2L86Gc-47y-71" value="&lt;p style=&quot;margin:0px;margin-top:6px;text-align:center;&quot;&gt;&lt;b&gt;InalacoesAccordionComponent&lt;/b&gt;&lt;/p&gt;&lt;hr&gt;&lt;p style=&quot;margin:0px;margin-left:8px;&quot;&gt;&lt;br&gt;&lt;/p&gt;" style="align=left;overflow=fill;html=1;dropTarget=0;" parent="1" vertex="1">
          <mxGeometry x="190" y="658" width="320" height="90" as="geometry" />
        </mxCell>
        <mxCell id="EhoqWdMSPW2L86Gc-47y-72" value="" style="shape=component;jettyWidth=8;jettyHeight=4;" parent="EhoqWdMSPW2L86Gc-47y-71" vertex="1">
          <mxGeometry x="1" width="20" height="20" relative="1" as="geometry">
            <mxPoint x="-24" y="4" as="offset" />
          </mxGeometry>
        </mxCell>
        <mxCell id="EhoqWdMSPW2L86Gc-47y-73" value="&lt;p style=&quot;margin:0px;margin-top:6px;text-align:center;&quot;&gt;&lt;b&gt;SorosAccordionComponent&lt;/b&gt;&lt;/p&gt;&lt;hr&gt;&lt;p style=&quot;margin:0px;margin-left:8px;&quot;&gt;&lt;br&gt;&lt;/p&gt;" style="align=left;overflow=fill;html=1;dropTarget=0;" parent="1" vertex="1">
          <mxGeometry x="571" y="658" width="220" height="90" as="geometry" />
        </mxCell>
        <mxCell id="EhoqWdMSPW2L86Gc-47y-74" value="" style="shape=component;jettyWidth=8;jettyHeight=4;" parent="EhoqWdMSPW2L86Gc-47y-73" vertex="1">
          <mxGeometry x="1" width="20" height="20" relative="1" as="geometry">
            <mxPoint x="-24" y="4" as="offset" />
          </mxGeometry>
        </mxCell>
        <mxCell id="EhoqWdMSPW2L86Gc-47y-75" value="&lt;p style=&quot;margin:0px;margin-top:6px;text-align:center;&quot;&gt;&lt;b&gt;RotinasCuidadosAccordionComponent&lt;/b&gt;&lt;/p&gt;&lt;hr&gt;&lt;p style=&quot;margin:0px;margin-left:8px;&quot;&gt;&lt;br&gt;&lt;/p&gt;" style="align=left;overflow=fill;html=1;dropTarget=0;" parent="1" vertex="1">
          <mxGeometry x="-185" y="790" width="295" height="90" as="geometry" />
        </mxCell>
        <mxCell id="EhoqWdMSPW2L86Gc-47y-76" value="" style="shape=component;jettyWidth=8;jettyHeight=4;" parent="EhoqWdMSPW2L86Gc-47y-75" vertex="1">
          <mxGeometry x="1" width="20" height="20" relative="1" as="geometry">
            <mxPoint x="-24" y="4" as="offset" />
          </mxGeometry>
        </mxCell>
        <mxCell id="EhoqWdMSPW2L86Gc-47y-77" value="&lt;p style=&quot;margin:0px;margin-top:6px;text-align:center;&quot;&gt;&lt;b&gt;VentilacoesAccordionComponent&lt;/b&gt;&lt;/p&gt;&lt;hr&gt;&lt;p style=&quot;margin:0px;margin-left:8px;&quot;&gt;&lt;br&gt;&lt;/p&gt;" style="align=left;overflow=fill;html=1;dropTarget=0;" parent="1" vertex="1">
          <mxGeometry x="555" y="910" width="236" height="90" as="geometry" />
        </mxCell>
        <mxCell id="EhoqWdMSPW2L86Gc-47y-78" value="" style="shape=component;jettyWidth=8;jettyHeight=4;" parent="EhoqWdMSPW2L86Gc-47y-77" vertex="1">
          <mxGeometry x="1" width="20" height="20" relative="1" as="geometry">
            <mxPoint x="-24" y="4" as="offset" />
          </mxGeometry>
        </mxCell>
        <mxCell id="EhoqWdMSPW2L86Gc-47y-79" value="&lt;p style=&quot;margin:0px;margin-top:6px;text-align:center;&quot;&gt;&lt;b&gt;InsulinaAccordionComponent&lt;/b&gt;&lt;/p&gt;&lt;hr&gt;&lt;p style=&quot;margin:0px;margin-left:8px;&quot;&gt;&lt;br&gt;&lt;/p&gt;" style="align=left;overflow=fill;html=1;dropTarget=0;" parent="1" vertex="1">
          <mxGeometry x="566" y="800" width="230" height="90" as="geometry" />
        </mxCell>
        <mxCell id="EhoqWdMSPW2L86Gc-47y-80" value="" style="shape=component;jettyWidth=8;jettyHeight=4;" parent="EhoqWdMSPW2L86Gc-47y-79" vertex="1">
          <mxGeometry x="1" width="20" height="20" relative="1" as="geometry">
            <mxPoint x="-24" y="4" as="offset" />
          </mxGeometry>
        </mxCell>
        <mxCell id="EhoqWdMSPW2L86Gc-47y-81" value="&lt;p style=&quot;margin:0px;margin-top:6px;text-align:center;&quot;&gt;&lt;b&gt;ProcedimentosAccordionComponent&lt;/b&gt;&lt;/p&gt;&lt;hr&gt;&lt;p style=&quot;margin:0px;margin-left:8px;&quot;&gt;&lt;br&gt;&lt;/p&gt;" style="align=left;overflow=fill;html=1;dropTarget=0;" parent="1" vertex="1">
          <mxGeometry x="-185" y="930" width="295" height="90" as="geometry" />
        </mxCell>
        <mxCell id="EhoqWdMSPW2L86Gc-47y-82" value="" style="shape=component;jettyWidth=8;jettyHeight=4;" parent="EhoqWdMSPW2L86Gc-47y-81" vertex="1">
          <mxGeometry x="1" width="20" height="20" relative="1" as="geometry">
            <mxPoint x="-24" y="4" as="offset" />
          </mxGeometry>
        </mxCell>
        <mxCell id="EhoqWdMSPW2L86Gc-47y-87" value="PrescricaoAvulsaFormularioModule" style="shape=module;align=left;spacingLeft=20;align=center;verticalAlign=top;" parent="1" vertex="1">
          <mxGeometry x="-230" y="1140" width="1030" height="430" as="geometry" />
        </mxCell>
        <mxCell id="EhoqWdMSPW2L86Gc-47y-102" value="&lt;p style=&quot;margin:0px;margin-top:6px;text-align:center;&quot;&gt;&lt;b&gt;MedicamentoFormularioComponent&lt;/b&gt;&lt;/p&gt;&lt;hr&gt;&lt;p style=&quot;margin:0px;margin-left:8px;&quot;&gt;&lt;br&gt;&lt;/p&gt;" style="align=left;overflow=fill;html=1;dropTarget=0;" parent="1" vertex="1">
          <mxGeometry x="-88" y="1180" width="255" height="90" as="geometry" />
        </mxCell>
        <mxCell id="EhoqWdMSPW2L86Gc-47y-103" value="" style="shape=component;jettyWidth=8;jettyHeight=4;" parent="EhoqWdMSPW2L86Gc-47y-102" vertex="1">
          <mxGeometry x="1" width="20" height="20" relative="1" as="geometry">
            <mxPoint x="-24" y="4" as="offset" />
          </mxGeometry>
        </mxCell>
        <mxCell id="EhoqWdMSPW2L86Gc-47y-104" value="&lt;p style=&quot;margin:0px;margin-top:6px;text-align:center;&quot;&gt;&lt;b&gt;InalacoesFormularioComponent&lt;/b&gt;&lt;/p&gt;&lt;hr&gt;&lt;p style=&quot;margin:0px;margin-left:8px;&quot;&gt;&lt;br&gt;&lt;/p&gt;" style="align=left;overflow=fill;html=1;dropTarget=0;" parent="1" vertex="1">
          <mxGeometry x="191" y="1180" width="241" height="90" as="geometry" />
        </mxCell>
        <mxCell id="EhoqWdMSPW2L86Gc-47y-105" value="" style="shape=component;jettyWidth=8;jettyHeight=4;" parent="EhoqWdMSPW2L86Gc-47y-104" vertex="1">
          <mxGeometry x="1" width="20" height="20" relative="1" as="geometry">
            <mxPoint x="-24" y="4" as="offset" />
          </mxGeometry>
        </mxCell>
        <mxCell id="EhoqWdMSPW2L86Gc-47y-106" value="&lt;p style=&quot;margin:0px;margin-top:6px;text-align:center;&quot;&gt;&lt;b&gt;SorosFormularioComponent&lt;/b&gt;&lt;/p&gt;&lt;hr&gt;&lt;p style=&quot;margin:0px;margin-left:8px;&quot;&gt;&lt;br&gt;&lt;/p&gt;" style="align=left;overflow=fill;html=1;dropTarget=0;" parent="1" vertex="1">
          <mxGeometry x="442" y="1180" width="220" height="90" as="geometry" />
        </mxCell>
        <mxCell id="EhoqWdMSPW2L86Gc-47y-107" value="" style="shape=component;jettyWidth=8;jettyHeight=4;" parent="EhoqWdMSPW2L86Gc-47y-106" vertex="1">
          <mxGeometry x="1" width="20" height="20" relative="1" as="geometry">
            <mxPoint x="-24" y="4" as="offset" />
          </mxGeometry>
        </mxCell>
        <mxCell id="EhoqWdMSPW2L86Gc-47y-108" value="&lt;p style=&quot;margin:0px;margin-top:6px;text-align:center;&quot;&gt;&lt;b&gt;RotinasCuidadosFormularioComponent&lt;/b&gt;&lt;/p&gt;&lt;hr&gt;&lt;p style=&quot;margin:0px;margin-left:8px;&quot;&gt;&lt;br&gt;&lt;/p&gt;" style="align=left;overflow=fill;html=1;dropTarget=0;" parent="1" vertex="1">
          <mxGeometry x="-88" y="1310" width="260" height="90" as="geometry" />
        </mxCell>
        <mxCell id="EhoqWdMSPW2L86Gc-47y-109" value="" style="shape=component;jettyWidth=8;jettyHeight=4;" parent="EhoqWdMSPW2L86Gc-47y-108" vertex="1">
          <mxGeometry x="1" width="20" height="20" relative="1" as="geometry">
            <mxPoint x="-24" y="4" as="offset" />
          </mxGeometry>
        </mxCell>
        <mxCell id="EhoqWdMSPW2L86Gc-47y-110" value="&lt;p style=&quot;margin:0px;margin-top:6px;text-align:center;&quot;&gt;&lt;b&gt;VentilacoesFormularioComponent&lt;/b&gt;&lt;/p&gt;&lt;hr&gt;&lt;p style=&quot;margin:0px;margin-left:8px;&quot;&gt;&lt;br&gt;&lt;/p&gt;" style="align=left;overflow=fill;html=1;dropTarget=0;" parent="1" vertex="1">
          <mxGeometry x="191" y="1310" width="241" height="90" as="geometry" />
        </mxCell>
        <mxCell id="EhoqWdMSPW2L86Gc-47y-111" value="" style="shape=component;jettyWidth=8;jettyHeight=4;" parent="EhoqWdMSPW2L86Gc-47y-110" vertex="1">
          <mxGeometry x="1" width="20" height="20" relative="1" as="geometry">
            <mxPoint x="-24" y="4" as="offset" />
          </mxGeometry>
        </mxCell>
        <mxCell id="EhoqWdMSPW2L86Gc-47y-112" value="&lt;p style=&quot;margin:0px;margin-top:6px;text-align:center;&quot;&gt;&lt;b&gt;InsulinaFormularioComponent&lt;/b&gt;&lt;/p&gt;&lt;hr&gt;&lt;p style=&quot;margin:0px;margin-left:8px;&quot;&gt;&lt;br&gt;&lt;/p&gt;" style="align=left;overflow=fill;html=1;dropTarget=0;" parent="1" vertex="1">
          <mxGeometry x="442" y="1310" width="220" height="90" as="geometry" />
        </mxCell>
        <mxCell id="EhoqWdMSPW2L86Gc-47y-113" value="" style="shape=component;jettyWidth=8;jettyHeight=4;" parent="EhoqWdMSPW2L86Gc-47y-112" vertex="1">
          <mxGeometry x="1" width="20" height="20" relative="1" as="geometry">
            <mxPoint x="-24" y="4" as="offset" />
          </mxGeometry>
        </mxCell>
        <mxCell id="EhoqWdMSPW2L86Gc-47y-114" value="&lt;p style=&quot;margin:0px;margin-top:6px;text-align:center;&quot;&gt;&lt;b&gt;ProcedimentosComponent&lt;/b&gt;&lt;/p&gt;&lt;hr&gt;&lt;p style=&quot;margin:0px;margin-left:8px;&quot;&gt;&lt;br&gt;&lt;/p&gt;" style="align=left;overflow=fill;html=1;dropTarget=0;" parent="1" vertex="1">
          <mxGeometry x="-88" y="1440" width="260" height="90" as="geometry" />
        </mxCell>
        <mxCell id="EhoqWdMSPW2L86Gc-47y-115" value="" style="shape=component;jettyWidth=8;jettyHeight=4;" parent="EhoqWdMSPW2L86Gc-47y-114" vertex="1">
          <mxGeometry x="1" width="20" height="20" relative="1" as="geometry">
            <mxPoint x="-24" y="4" as="offset" />
          </mxGeometry>
        </mxCell>
        <mxCell id="V3_WfEpUrsb-aY7oiaF6-15" value="PrescricaoAulsaFormularioEdicaoModule" style="shape=module;align=left;spacingLeft=20;align=center;verticalAlign=top;" parent="1" vertex="1">
          <mxGeometry x="-223" y="1580" width="1050" height="430" as="geometry" />
        </mxCell>
        <mxCell id="V3_WfEpUrsb-aY7oiaF6-16" value="&lt;p style=&quot;margin:0px;margin-top:6px;text-align:center;&quot;&gt;&lt;b&gt;MedicamentoFormularioEdicaoComponent&lt;/b&gt;&lt;/p&gt;&lt;hr&gt;&lt;p style=&quot;margin:0px;margin-left:8px;&quot;&gt;&lt;br&gt;&lt;/p&gt;" style="align=left;overflow=fill;html=1;dropTarget=0;" parent="1" vertex="1">
          <mxGeometry x="-218" y="1640" width="350" height="90" as="geometry" />
        </mxCell>
        <mxCell id="V3_WfEpUrsb-aY7oiaF6-17" value="" style="shape=component;jettyWidth=8;jettyHeight=4;" parent="V3_WfEpUrsb-aY7oiaF6-16" vertex="1">
          <mxGeometry x="1" width="20" height="20" relative="1" as="geometry">
            <mxPoint x="-24" y="4" as="offset" />
          </mxGeometry>
        </mxCell>
        <mxCell id="V3_WfEpUrsb-aY7oiaF6-18" value="&lt;p style=&quot;margin:0px;margin-top:6px;text-align:center;&quot;&gt;&lt;b&gt;InalacoesFormularioEdicaoComponent&lt;/b&gt;&lt;/p&gt;&lt;hr&gt;&lt;p style=&quot;margin:0px;margin-left:8px;&quot;&gt;&lt;br&gt;&lt;/p&gt;" style="align=left;overflow=fill;html=1;dropTarget=0;" parent="1" vertex="1">
          <mxGeometry x="150" y="1640" width="340" height="90" as="geometry" />
        </mxCell>
        <mxCell id="V3_WfEpUrsb-aY7oiaF6-19" value="" style="shape=component;jettyWidth=8;jettyHeight=4;" parent="V3_WfEpUrsb-aY7oiaF6-18" vertex="1">
          <mxGeometry x="1" width="20" height="20" relative="1" as="geometry">
            <mxPoint x="-24" y="4" as="offset" />
          </mxGeometry>
        </mxCell>
        <mxCell id="V3_WfEpUrsb-aY7oiaF6-20" value="&lt;p style=&quot;margin:0px;margin-top:6px;text-align:center;&quot;&gt;&lt;b&gt;SorosFormularioEdicaoComponent&lt;/b&gt;&lt;/p&gt;&lt;hr&gt;&lt;p style=&quot;margin:0px;margin-left:8px;&quot;&gt;&lt;br&gt;&lt;/p&gt;" style="align=left;overflow=fill;html=1;dropTarget=0;" parent="1" vertex="1">
          <mxGeometry x="510" y="1640" width="290" height="90" as="geometry" />
        </mxCell>
        <mxCell id="V3_WfEpUrsb-aY7oiaF6-21" value="" style="shape=component;jettyWidth=8;jettyHeight=4;" parent="V3_WfEpUrsb-aY7oiaF6-20" vertex="1">
          <mxGeometry x="1" width="20" height="20" relative="1" as="geometry">
            <mxPoint x="-24" y="4" as="offset" />
          </mxGeometry>
        </mxCell>
        <mxCell id="V3_WfEpUrsb-aY7oiaF6-22" value="&lt;p style=&quot;margin:0px;margin-top:6px;text-align:center;&quot;&gt;&lt;b&gt;RotinasCuidadosFormularioEdicaoComponent&lt;/b&gt;&lt;/p&gt;&lt;hr&gt;&lt;p style=&quot;margin:0px;margin-left:8px;&quot;&gt;&lt;br&gt;&lt;/p&gt;" style="align=left;overflow=fill;html=1;dropTarget=0;" parent="1" vertex="1">
          <mxGeometry x="-209" y="1790" width="340" height="90" as="geometry" />
        </mxCell>
        <mxCell id="V3_WfEpUrsb-aY7oiaF6-23" value="" style="shape=component;jettyWidth=8;jettyHeight=4;" parent="V3_WfEpUrsb-aY7oiaF6-22" vertex="1">
          <mxGeometry x="1" width="20" height="20" relative="1" as="geometry">
            <mxPoint x="-24" y="4" as="offset" />
          </mxGeometry>
        </mxCell>
        <mxCell id="V3_WfEpUrsb-aY7oiaF6-24" value="&lt;p style=&quot;margin:0px;margin-top:6px;text-align:center;&quot;&gt;&lt;b&gt;VentilacoesFormularioEdicaoComponent&lt;/b&gt;&lt;/p&gt;&lt;hr&gt;&lt;p style=&quot;margin:0px;margin-left:8px;&quot;&gt;&lt;br&gt;&lt;/p&gt;" style="align=left;overflow=fill;html=1;dropTarget=0;" parent="1" vertex="1">
          <mxGeometry x="140" y="1790" width="350" height="90" as="geometry" />
        </mxCell>
        <mxCell id="V3_WfEpUrsb-aY7oiaF6-25" value="" style="shape=component;jettyWidth=8;jettyHeight=4;" parent="V3_WfEpUrsb-aY7oiaF6-24" vertex="1">
          <mxGeometry x="1" width="20" height="20" relative="1" as="geometry">
            <mxPoint x="-24" y="4" as="offset" />
          </mxGeometry>
        </mxCell>
        <mxCell id="V3_WfEpUrsb-aY7oiaF6-26" value="&lt;p style=&quot;margin:0px;margin-top:6px;text-align:center;&quot;&gt;&lt;b&gt;InsulinaFormularioEdicaoComponent&lt;/b&gt;&lt;/p&gt;&lt;hr&gt;&lt;p style=&quot;margin:0px;margin-left:8px;&quot;&gt;&lt;br&gt;&lt;/p&gt;" style="align=left;overflow=fill;html=1;dropTarget=0;" parent="1" vertex="1">
          <mxGeometry x="510" y="1790" width="290" height="90" as="geometry" />
        </mxCell>
        <mxCell id="V3_WfEpUrsb-aY7oiaF6-27" value="" style="shape=component;jettyWidth=8;jettyHeight=4;" parent="V3_WfEpUrsb-aY7oiaF6-26" vertex="1">
          <mxGeometry x="1" width="20" height="20" relative="1" as="geometry">
            <mxPoint x="-24" y="4" as="offset" />
          </mxGeometry>
        </mxCell>
        <mxCell id="V3_WfEpUrsb-aY7oiaF6-28" value="&lt;p style=&quot;margin:0px;margin-top:6px;text-align:center;&quot;&gt;&lt;b&gt;ProcedimentosEdicaoComponent&lt;/b&gt;&lt;/p&gt;&lt;hr&gt;&lt;p style=&quot;margin:0px;margin-left:8px;&quot;&gt;&lt;br&gt;&lt;/p&gt;" style="align=left;overflow=fill;html=1;dropTarget=0;" parent="1" vertex="1">
          <mxGeometry x="-210" y="1900" width="340" height="90" as="geometry" />
        </mxCell>
        <mxCell id="V3_WfEpUrsb-aY7oiaF6-29" value="" style="shape=component;jettyWidth=8;jettyHeight=4;" parent="V3_WfEpUrsb-aY7oiaF6-28" vertex="1">
          <mxGeometry x="1" width="20" height="20" relative="1" as="geometry">
            <mxPoint x="-24" y="4" as="offset" />
          </mxGeometry>
        </mxCell>
        <mxCell id="V3_WfEpUrsb-aY7oiaF6-31" value="Shared" style="shape=module;align=left;spacingLeft=20;align=center;verticalAlign=top;" parent="1" vertex="1">
          <mxGeometry x="-230" y="2040" width="1050" height="430" as="geometry" />
        </mxCell>
        <mxCell id="V3_WfEpUrsb-aY7oiaF6-32" value="&lt;p style=&quot;margin:0px;margin-top:6px;text-align:center;&quot;&gt;&lt;b&gt;ButtonPlus&lt;/b&gt;&lt;/p&gt;&lt;hr&gt;&lt;p style=&quot;margin:0px;margin-left:8px;&quot;&gt;&lt;br&gt;&lt;/p&gt;" style="align=left;overflow=fill;html=1;dropTarget=0;" parent="1" vertex="1">
          <mxGeometry x="-210" y="2080" width="340" height="90" as="geometry" />
        </mxCell>
        <mxCell id="V3_WfEpUrsb-aY7oiaF6-33" value="" style="shape=component;jettyWidth=8;jettyHeight=4;" parent="V3_WfEpUrsb-aY7oiaF6-32" vertex="1">
          <mxGeometry x="1" width="20" height="20" relative="1" as="geometry">
            <mxPoint x="-24" y="4" as="offset" />
          </mxGeometry>
        </mxCell>
        <mxCell id="2zCt_KZE0P_wFvOy1blA-61" value="" style="edgeStyle=orthogonalEdgeStyle;rounded=0;orthogonalLoop=1;jettySize=auto;html=1;" edge="1" parent="1" source="V3_WfEpUrsb-aY7oiaF6-34" target="EhoqWdMSPW2L86Gc-47y-79">
          <mxGeometry relative="1" as="geometry" />
        </mxCell>
        <mxCell id="V3_WfEpUrsb-aY7oiaF6-34" value="&lt;p style=&quot;margin:0px;margin-top:6px;text-align:center;&quot;&gt;&lt;b&gt;PresrcicaoAvulsaAccordionnItemComponent&lt;/b&gt;&lt;/p&gt;&lt;hr&gt;&lt;p style=&quot;margin:0px;margin-left:8px;&quot;&gt;&lt;br&gt;&lt;/p&gt;" style="align=left;overflow=fill;html=1;dropTarget=0;" parent="1" vertex="1">
          <mxGeometry x="210" y="810" width="290" height="90" as="geometry" />
        </mxCell>
        <mxCell id="V3_WfEpUrsb-aY7oiaF6-35" value="" style="shape=component;jettyWidth=8;jettyHeight=4;" parent="V3_WfEpUrsb-aY7oiaF6-34" vertex="1">
          <mxGeometry x="1" width="20" height="20" relative="1" as="geometry">
            <mxPoint x="-24" y="4" as="offset" />
          </mxGeometry>
        </mxCell>
        <mxCell id="3qLVanbIpuJyAhB_siTX-1" value="" style="endArrow=none;html=1;edgeStyle=orthogonalEdgeStyle;rounded=0;" parent="1" target="EhoqWdMSPW2L86Gc-47y-27" edge="1">
          <mxGeometry relative="1" as="geometry">
            <mxPoint x="329" y="393" as="sourcePoint" />
            <mxPoint x="489" y="393" as="targetPoint" />
          </mxGeometry>
        </mxCell>
        <mxCell id="3qLVanbIpuJyAhB_siTX-2" value="parent" style="edgeLabel;resizable=0;html=1;align=left;verticalAlign=bottom;" parent="3qLVanbIpuJyAhB_siTX-1" connectable="0" vertex="1">
          <mxGeometry x="-1" relative="1" as="geometry" />
        </mxCell>
        <mxCell id="3qLVanbIpuJyAhB_siTX-3" value="child" style="edgeLabel;resizable=0;html=1;align=right;verticalAlign=bottom;" parent="3qLVanbIpuJyAhB_siTX-1" connectable="0" vertex="1">
          <mxGeometry x="1" relative="1" as="geometry" />
        </mxCell>
        <mxCell id="3qLVanbIpuJyAhB_siTX-4" value="" style="endArrow=none;html=1;edgeStyle=orthogonalEdgeStyle;rounded=0;entryX=0;entryY=0.75;entryDx=0;entryDy=0;" parent="1" target="EhoqWdMSPW2L86Gc-47y-25" edge="1">
          <mxGeometry relative="1" as="geometry">
            <mxPoint x="330" y="333" as="sourcePoint" />
            <mxPoint x="490" y="333" as="targetPoint" />
          </mxGeometry>
        </mxCell>
        <mxCell id="3qLVanbIpuJyAhB_siTX-5" value="parent" style="edgeLabel;resizable=0;html=1;align=left;verticalAlign=bottom;" parent="3qLVanbIpuJyAhB_siTX-4" connectable="0" vertex="1">
          <mxGeometry x="-1" relative="1" as="geometry" />
        </mxCell>
        <mxCell id="3qLVanbIpuJyAhB_siTX-6" value="child" style="edgeLabel;resizable=0;html=1;align=right;verticalAlign=bottom;" parent="3qLVanbIpuJyAhB_siTX-4" connectable="0" vertex="1">
          <mxGeometry x="1" relative="1" as="geometry" />
        </mxCell>
        <mxCell id="2zCt_KZE0P_wFvOy1blA-4" value="" style="endArrow=none;html=1;edgeStyle=orthogonalEdgeStyle;rounded=0;" edge="1" parent="1">
          <mxGeometry relative="1" as="geometry">
            <mxPoint x="110" y="984" as="sourcePoint" />
            <mxPoint x="320.00000000000045" y="914.9999999999998" as="targetPoint" />
          </mxGeometry>
        </mxCell>
        <mxCell id="2zCt_KZE0P_wFvOy1blA-5" value="parent" style="edgeLabel;resizable=0;html=1;align=left;verticalAlign=bottom;" connectable="0" vertex="1" parent="2zCt_KZE0P_wFvOy1blA-4">
          <mxGeometry x="-1" relative="1" as="geometry" />
        </mxCell>
        <mxCell id="2zCt_KZE0P_wFvOy1blA-6" value="child" style="edgeLabel;resizable=0;html=1;align=right;verticalAlign=bottom;" connectable="0" vertex="1" parent="2zCt_KZE0P_wFvOy1blA-4">
          <mxGeometry x="1" relative="1" as="geometry" />
        </mxCell>
        <mxCell id="2zCt_KZE0P_wFvOy1blA-24" value="" style="endArrow=none;html=1;edgeStyle=orthogonalEdgeStyle;rounded=0;" edge="1" parent="1">
          <mxGeometry relative="1" as="geometry">
            <mxPoint x="555" y="971" as="sourcePoint" />
            <mxPoint x="346.00000000000045" y="915.9999999999998" as="targetPoint" />
            <Array as="points">
              <mxPoint x="555" y="980" />
              <mxPoint x="346" y="980" />
            </Array>
          </mxGeometry>
        </mxCell>
        <mxCell id="2zCt_KZE0P_wFvOy1blA-25" value="parent" style="edgeLabel;resizable=0;html=1;align=left;verticalAlign=bottom;" connectable="0" vertex="1" parent="2zCt_KZE0P_wFvOy1blA-24">
          <mxGeometry x="-1" relative="1" as="geometry">
            <mxPoint x="-36" as="offset" />
          </mxGeometry>
        </mxCell>
        <mxCell id="2zCt_KZE0P_wFvOy1blA-26" value="child" style="edgeLabel;resizable=0;html=1;align=right;verticalAlign=bottom;" connectable="0" vertex="1" parent="2zCt_KZE0P_wFvOy1blA-24">
          <mxGeometry x="1" relative="1" as="geometry" />
        </mxCell>
        <mxCell id="2zCt_KZE0P_wFvOy1blA-48" value="" style="endArrow=none;html=1;edgeStyle=orthogonalEdgeStyle;rounded=0;" edge="1" parent="1" target="V3_WfEpUrsb-aY7oiaF6-34">
          <mxGeometry relative="1" as="geometry">
            <mxPoint x="110" y="856" as="sourcePoint" />
            <mxPoint x="160" y="856" as="targetPoint" />
          </mxGeometry>
        </mxCell>
        <mxCell id="2zCt_KZE0P_wFvOy1blA-49" value="parent" style="edgeLabel;resizable=0;html=1;align=left;verticalAlign=bottom;" connectable="0" vertex="1" parent="2zCt_KZE0P_wFvOy1blA-48">
          <mxGeometry x="-1" relative="1" as="geometry" />
        </mxCell>
        <mxCell id="2zCt_KZE0P_wFvOy1blA-50" value="child" style="edgeLabel;resizable=0;html=1;align=right;verticalAlign=bottom;" connectable="0" vertex="1" parent="2zCt_KZE0P_wFvOy1blA-48">
          <mxGeometry x="1" relative="1" as="geometry" />
        </mxCell>
        <mxCell id="2zCt_KZE0P_wFvOy1blA-51" value="" style="endArrow=none;html=1;edgeStyle=orthogonalEdgeStyle;rounded=0;entryX=0;entryY=0.5;entryDx=0;entryDy=0;" edge="1" parent="1" target="EhoqWdMSPW2L86Gc-47y-71">
          <mxGeometry relative="1" as="geometry">
            <mxPoint x="102.5" y="702.47" as="sourcePoint" />
            <mxPoint x="262.5" y="702.47" as="targetPoint" />
          </mxGeometry>
        </mxCell>
        <mxCell id="2zCt_KZE0P_wFvOy1blA-52" value="parent" style="edgeLabel;resizable=0;html=1;align=left;verticalAlign=bottom;" connectable="0" vertex="1" parent="2zCt_KZE0P_wFvOy1blA-51">
          <mxGeometry x="-1" relative="1" as="geometry" />
        </mxCell>
        <mxCell id="2zCt_KZE0P_wFvOy1blA-53" value="child" style="edgeLabel;resizable=0;html=1;align=right;verticalAlign=bottom;" connectable="0" vertex="1" parent="2zCt_KZE0P_wFvOy1blA-51">
          <mxGeometry x="1" relative="1" as="geometry" />
        </mxCell>
        <mxCell id="2zCt_KZE0P_wFvOy1blA-54" value="" style="endArrow=none;html=1;edgeStyle=orthogonalEdgeStyle;rounded=0;entryX=0;entryY=0.5;entryDx=0;entryDy=0;" edge="1" parent="1" target="EhoqWdMSPW2L86Gc-47y-73">
          <mxGeometry relative="1" as="geometry">
            <mxPoint x="510" y="702.47" as="sourcePoint" />
            <mxPoint x="623" y="702.47" as="targetPoint" />
            <Array as="points" />
          </mxGeometry>
        </mxCell>
        <mxCell id="2zCt_KZE0P_wFvOy1blA-55" value="parent" style="edgeLabel;resizable=0;html=1;align=left;verticalAlign=bottom;" connectable="0" vertex="1" parent="2zCt_KZE0P_wFvOy1blA-54">
          <mxGeometry x="-1" relative="1" as="geometry" />
        </mxCell>
        <mxCell id="2zCt_KZE0P_wFvOy1blA-56" value="child" style="edgeLabel;resizable=0;html=1;align=right;verticalAlign=bottom;" connectable="0" vertex="1" parent="2zCt_KZE0P_wFvOy1blA-54">
          <mxGeometry x="1" relative="1" as="geometry" />
        </mxCell>
        <mxCell id="2zCt_KZE0P_wFvOy1blA-58" value="" style="endArrow=none;html=1;edgeStyle=orthogonalEdgeStyle;rounded=0;" edge="1" parent="1" source="V3_WfEpUrsb-aY7oiaF6-34" target="EhoqWdMSPW2L86Gc-47y-79">
          <mxGeometry relative="1" as="geometry">
            <mxPoint x="498" y="774.03" as="sourcePoint" />
            <mxPoint x="530.0000000000005" y="804.0299999999997" as="targetPoint" />
          </mxGeometry>
        </mxCell>
        <mxCell id="2zCt_KZE0P_wFvOy1blA-59" value="parent" style="edgeLabel;resizable=0;html=1;align=left;verticalAlign=bottom;" connectable="0" vertex="1" parent="2zCt_KZE0P_wFvOy1blA-58">
          <mxGeometry x="-1" relative="1" as="geometry">
            <mxPoint x="33" y="-17" as="offset" />
          </mxGeometry>
        </mxCell>
        <mxCell id="2zCt_KZE0P_wFvOy1blA-60" value="child" style="edgeLabel;resizable=0;html=1;align=right;verticalAlign=bottom;" connectable="0" vertex="1" parent="2zCt_KZE0P_wFvOy1blA-58">
          <mxGeometry x="1" relative="1" as="geometry">
            <mxPoint x="-38" y="-9" as="offset" />
          </mxGeometry>
        </mxCell>
      </root>
    </mxGraphModel>
  </diagram>
</mxfile>
